# xmcd
#
# Track frame offsets:
#	150
#	13869
#	29483
#	45010
#	64650
#	83359
#	98399
#	112890
#	128341
#	144059
#	157670
#	173615
#	190423
#	207971
#
# Disc length: 3059 seconds
#
# Revision: 1
# Processed by: cddbd v1.5.2PL0 Copyright (c) Steve Scherf et al.
# Submitted via: audiograbber 1.83.01
#
DISCID=920bf10e
DTITLE=Various Artist - Star Disc P082
DYEAR=1900
DGENRE=COUNTRY CD+G
TTITLE0=Dixie Chicks - If I Fall You're Going To Fall With Me
TTITLE1=Brooks and Dunn - Ain't Nothing About You
TTITLE2=Jackson, Alan - When Somebody Loves You
TTITLE3=Evans, Sara - I Could Not Ask For More
TTITLE4=Strait, George - If You Can Do Anything Else
TTITLE5=Rimes, LeAnn - But I Do Love You
TTITLE6=Morgan, Lorrie and Sam - He Drinks Tequila
TTITLE7=McGuinn, Mark - Mrs. Steven Rudy
TTITLE8=Raye, Collin - You Still Take Me There
TTITLE9=Williams, Hank III - I Don't Know
TTITLE10=Angelle, Lisa - I Will Love You
TTITLE11=Johnson, Carolyn Dawn - Complicated
TTITLE12=Cagle, Chris - Laredo
TTITLE13=Sons Of The Desert - What I Did Right
EXTD=
EXTT0=
EXTT1=
EXTT2=
EXTT3=
EXTT4=
EXTT5=
EXTT6=
EXTT7=
EXTT8=
EXTT9=
EXTT10=
EXTT11=
EXTT12=
EXTT13=
PLAYORDER=
